<svg width="92" height="18" viewBox="0 0 92 18" fill="none" xmlns="http://www.w3.org/2000/svg">
<path d="M81.8699 1.02735C82.0459 0.631575 82.6076 0.631576 82.7836 1.02735L84.7505 5.45039C84.8253 5.61858 84.9865 5.73207 85.17 5.74583L90.2123 6.12391C90.665 6.15785 90.8418 6.72888 90.4875 7.01272L86.6965 10.05C86.5434 10.1727 86.4761 10.3736 86.5246 10.5638L87.6914 15.1385C87.8005 15.5662 87.3422 15.9152 86.9589 15.6962L82.5748 13.1917C82.4211 13.1039 82.2324 13.1039 82.0787 13.1917L77.6946 15.6962C77.3113 15.9152 76.853 15.5662 76.9621 15.1385L78.1288 10.5638C78.1773 10.3736 78.1101 10.1727 77.957 10.05L74.1659 7.01272C73.8117 6.72888 73.9885 6.15785 74.4412 6.12391L79.4835 5.74583C79.667 5.73207 79.8282 5.61857 79.903 5.45039L81.8699 1.02735Z" fill="#FFA029"/>
<path d="M63.6941 1.02735C63.8701 0.631575 64.4318 0.631576 64.6078 1.02735L66.5747 5.45039C66.6495 5.61858 66.8107 5.73207 66.9942 5.74583L72.0365 6.12391C72.4892 6.15785 72.666 6.72888 72.3118 7.01272L68.5207 10.05C68.3676 10.1727 68.3004 10.3736 68.3489 10.5638L69.5156 15.1385C69.6247 15.5662 69.1664 15.9152 68.7831 15.6962L64.399 13.1917C64.2453 13.1039 64.0566 13.1039 63.9029 13.1917L59.5188 15.6962C59.1355 15.9152 58.6772 15.5662 58.7863 15.1385L59.9531 10.5638C60.0016 10.3736 59.9343 10.1727 59.7812 10.05L55.9902 7.01272C55.6359 6.72888 55.8127 6.15785 56.2654 6.12391L61.3077 5.74583C61.4913 5.73207 61.6524 5.61857 61.7272 5.45039L63.6941 1.02735Z" fill="#FFA029"/>
<path d="M27.3416 1.02735C27.5176 0.631575 28.0793 0.631576 28.2553 1.02735L30.2222 5.45039C30.297 5.61858 30.4581 5.73207 30.6417 5.74583L35.684 6.12391C36.1367 6.15785 36.3135 6.72888 35.9592 7.01272L32.1682 10.05C32.015 10.1727 31.9478 10.3736 31.9963 10.5638L33.163 15.1385C33.2721 15.5662 32.8138 15.9152 32.4305 15.6962L28.0464 13.1917C27.8928 13.1039 27.7041 13.1039 27.5504 13.1917L23.1663 15.6962C22.783 15.9152 22.3247 15.5662 22.4338 15.1385L23.6005 10.5638C23.649 10.3736 23.5818 10.1727 23.4287 10.05L19.6376 7.01272C19.2833 6.72888 19.4602 6.15785 19.9129 6.12391L24.9552 5.74583C25.1387 5.73207 25.2999 5.61857 25.3746 5.45039L27.3416 1.02735Z" fill="#FFA029"/>
<path d="M45.5183 1.02735C45.6943 0.631575 46.256 0.631576 46.432 1.02735L48.399 5.45039C48.4738 5.61858 48.6349 5.73207 48.8184 5.74583L53.8607 6.12391C54.3134 6.15785 54.4903 6.72888 54.136 7.01272L50.3449 10.05C50.1918 10.1727 50.1246 10.3736 50.1731 10.5638L51.3398 15.1385C51.4489 15.5662 50.9906 15.9152 50.6073 15.6962L46.2232 13.1917C46.0695 13.1039 45.8809 13.1039 45.7272 13.1917L41.3431 15.6962C40.9598 15.9152 40.5015 15.5662 40.6106 15.1385L41.7773 10.5638C41.8258 10.3736 41.7586 10.1727 41.6054 10.05L37.8144 7.01272C37.4601 6.72888 37.6369 6.15785 38.0896 6.12391L43.1319 5.74583C43.3155 5.73207 43.4766 5.61857 43.5514 5.45039L45.5183 1.02735Z" fill="#FFA029"/>
<path d="M9.16578 1.02735C9.34178 0.631575 9.9035 0.631576 10.0795 1.02735L12.0464 5.45039C12.1212 5.61858 12.2824 5.73207 12.4659 5.74583L17.5082 6.12391C17.9609 6.15785 18.1377 6.72888 17.7834 7.01272L13.9924 10.05C13.8393 10.1727 13.772 10.3736 13.8205 10.5638L14.9873 15.1385C15.0964 15.5662 14.6381 15.9152 14.2548 15.6962L9.87066 13.1917C9.71697 13.1039 9.52831 13.1039 9.37462 13.1917L4.99053 15.6962C4.60722 15.9152 4.14892 15.5662 4.25802 15.1385L5.42475 10.5638C5.47324 10.3736 5.40603 10.1727 5.25288 10.05L1.46185 7.01272C1.10757 6.72888 1.2844 6.15785 1.73709 6.12391L6.77939 5.74583C6.96293 5.73207 7.12407 5.61857 7.19886 5.45039L9.16578 1.02735Z" fill="#FFA029"/>
</svg>
