<svg width="79" height="75" viewBox="0 0 79 75" fill="none" xmlns="http://www.w3.org/2000/svg">
<path d="M52.7969 42.8473L44.396 51.0695L33.4926 40.1661L41.4467 31.0503L32.9996 38.5L2.6595 8.17117C1.16997 7.09871 1.99959 8.17117 0.999588 6L4.49959 1.49999C5.95932 1.61916 8.28461 0.21307 8.99959 1.50002C9.71456 2.78697 31.7648 21.9046 41.4467 31.0503L52.7969 42.8473Z" fill="#C6C6C6"/>
<path d="M74.604 51.0696L55.1211 42.8474L44.8434 52.857L52.6187 70.1057C53.5482 74.467 57.3554 74.0083 59.1428 73.2337C66.3819 76.8086 74.604 63.9391 75.9446 60.0961C77.0171 57.0217 75.4978 52.7974 74.604 51.0696Z" fill="#F784C9"/>
<path d="M63.6434 74.3758C67.0466 73.6129 70.4129 71.7804 73.1221 69.2158C75.8517 66.6322 77.7312 63.551 78.5577 60.3053C79.3915 57.0316 79.0387 53.8432 77.5646 51.3274C77.1735 50.6603 76.5193 49.5438 65.8562 45.1491C61.5514 43.375 57.3075 41.768 56.1483 41.3323L44.9515 31.3571C45.6109 30.6941 45.598 29.6501 44.9133 29.0016C44.2153 28.3409 43.0835 28.3409 42.3853 29.0016L42.3476 29.0375L11.7488 1.77715C9.02831 -0.646048 4.66627 -0.583277 2.02499 1.91707C0.677086 3.19296 1.50031e-05 4.89268 1.49142e-05 6.59392C1.48288e-05 8.2263 0.623825 9.86038 1.87735 11.1214L30.6762 40.0858L30.6385 40.1214C29.9407 40.7821 29.9407 41.8534 30.6385 42.5143C31.3236 43.1626 32.4263 43.1746 33.1268 42.5505L43.7858 53.2706C44.2457 54.3856 45.889 58.3376 47.7072 62.3499C52.239 72.3502 53.4132 72.9841 54.1148 73.3627C56.7732 74.7976 60.1572 75.1575 63.6434 74.3758ZM4.48074 8.80224C3.25206 7.56662 3.28531 5.50939 4.55277 4.30964C5.82006 3.10988 7.99357 3.07875 9.29875 4.24128L39.8189 31.4312L33.2051 37.6917L4.48074 8.80224ZM35.6564 40.1571L42.4234 33.7516L52.7381 42.9408L50.7349 44.837C50.7222 44.8486 50.7094 44.8607 50.697 44.8728L47.4012 47.9928C47.391 48.0021 47.3812 48.0114 47.3715 48.0209L45.3642 49.9209L35.6564 40.1571ZM55.9682 70.4671C54.6943 69.2674 50.6554 60.5991 47.4142 52.7659L48.4622 51.7739L56.4338 61.7826C57.0281 62.5287 58.149 62.6776 58.9373 62.115C59.725 61.5526 59.8825 60.4918 59.2885 59.7455L51.0148 49.3578L52.1434 48.2895L63.1172 56.121C63.9054 56.6836 65.0263 56.5347 65.6206 55.7885C66.2148 55.0424 66.0575 53.9814 65.2694 53.419L54.696 45.8733L55.79 44.8378C64.0954 47.975 73.2158 51.8416 74.4872 53.053C76.6457 56.8617 75.0202 62.634 70.5945 66.8234C66.1267 71.0524 59.9942 72.5744 55.9682 70.4671Z" fill="#1C1F28"/>
</svg>
