<svg width="73" height="71" viewBox="0 0 73 71" fill="none" xmlns="http://www.w3.org/2000/svg">
<path d="M39.9054 39.5697L39.448 39.9775L31.5938 32.0835L32.0512 31.6758L52.2081 13.706C54.1484 11.9763 57.1929 12.0691 59.009 13.8944L60.2708 15.1627C62.0869 16.988 62.0025 19.8702 60.0623 21.5999L39.9054 39.5697ZM34.1235 54.9859C34.2829 55.1462 34.4624 55.2758 34.6542 55.375L25.6738 63.381C24.1328 64.7548 21.7034 64.6795 20.2633 63.232L5.92182 48.818C4.48182 47.3707 4.54778 45.0705 6.08873 43.6968L15.0694 35.6906C15.1626 35.8782 15.2886 36.0557 15.4479 36.2158L34.1235 54.9859Z" fill="#C6C6C6" stroke="#1C1F28" stroke-width="4"/>
<path d="M36.7563 52.728L18.1395 33.6859C15.7432 36.0414 10.0749 40.8735 8.25371 42.6637C6.43255 44.4539 5.69267 46.4356 8.34901 49.1517L19.8498 60.9288C23.7888 63.9874 25.2734 61.8555 27.2221 60.5844L36.7563 52.728Z" fill="#F784C9"/>
</svg>
