<svg width="97" height="102" viewBox="0 0 97 102" fill="none" xmlns="http://www.w3.org/2000/svg">
<path d="M58.6881 63.9646C46.3612 72.8054 28.7341 70.5051 19.3944 58.8368C10.0546 47.1685 12.4847 30.483 24.8115 21.6422C37.1383 12.8014 54.7655 15.1019 64.1053 26.7701C73.4451 38.4385 71.0149 55.1238 58.6881 63.9646Z" fill="#F784C9"/>
<path d="M35.5411 23.7403C33.2173 24.3899 30.9796 25.4366 28.9386 26.8974C19.7379 33.4827 18.0149 45.972 25.0904 54.7934C26.66 56.7503 28.5311 58.3614 30.5927 59.6134L34.7575 56.6325L35.5411 23.7403Z" fill="#9AE1D3"/>
<path d="M44.471 23.0483L40.3062 26.0292L39.0288 62.4992C44.3619 63.232 49.9607 62.0388 54.561 58.7462C63.7617 52.1609 65.4846 39.6715 58.4092 30.8502C54.8715 26.4396 49.8041 23.7811 44.471 23.0483Z" fill="#9AE1D3"/>
<path d="M40.6504 85.3921C40.6504 85.3921 43.0401 88.3776 45.4247 91.3567C47.8093 94.3357 59.7513 89.5724 72.0978 80.7175C84.4444 71.8625 92.5202 62.2691 90.1356 59.29C87.7511 56.311 85.3613 53.3254 85.3613 53.3254L40.6504 85.3921Z" fill="#E7D5E0"/>
<path d="M67.3238 74.754C79.6704 65.899 87.7462 56.3056 85.3616 53.3265C82.977 50.3474 71.035 55.1107 58.6885 63.9657C46.3419 72.8207 38.2661 82.4141 40.6507 85.3932C43.0353 88.3723 54.9773 83.6089 67.3238 74.754Z" fill="#F784C9"/>
<path d="M73.2887 59.9285C69.5183 61.8273 65.3849 64.3663 61.3346 67.2712C57.2842 70.1761 53.5836 73.2559 50.6323 76.1776C50.0375 76.7665 49.9823 77.677 50.5021 78.3264C51.0219 78.9758 51.9629 79.1719 52.7227 78.7891C56.4931 76.8902 60.6266 74.351 64.6766 71.4464C68.7265 68.5418 72.4272 65.462 75.379 62.5401C75.974 61.9511 76.029 61.0407 75.5092 60.3913C74.9894 59.7419 74.0486 59.5457 73.2887 59.9285Z" fill="#F784C9"/>
<path d="M35.6792 23.7339L30.4545 59.6067C33.0302 61.1576 35.9097 62.1415 38.8768 62.5287L44.6225 23.078C41.6556 22.6909 38.602 22.9009 35.6792 23.7339Z" fill="white"/>
<path d="M27.8707 25.5C17.9194 32.6226 16.0491 46.1794 23.7019 55.7206C31.3547 65.2617 45.6767 67.2292 55.628 60.1067C65.5795 52.9841 67.4497 39.4273 59.7969 29.8862C52.1441 20.345 37.8222 18.3774 27.8707 25.5ZM53.4928 57.4446C45.0724 63.4714 32.9538 61.8065 26.4785 53.7333C20.0031 45.6601 21.5854 34.1888 30.0058 28.162C38.4263 22.1352 50.5448 23.8001 57.0202 31.8733C63.4956 39.9465 61.9133 51.4178 53.4928 57.4446Z" fill="#000030"/>
<path d="M41.8758 29.4207L40.0238 42.8468C39.8986 43.7545 40.5746 44.5973 41.5338 44.7292C42.0134 44.795 42.4729 44.6708 42.8282 44.4165C43.1835 44.1622 43.4345 43.7778 43.4972 43.324L45.3493 29.8978C45.4745 28.9901 44.7985 28.1473 43.8394 28.0153C42.8799 27.8839 42.0011 28.5129 41.8758 29.4207Z" fill="#000030"/>
<path d="M38.9901 49.4221L38.123 55.709C37.9978 56.6167 38.6738 57.4595 39.633 57.5914C40.1126 57.6572 40.5721 57.533 40.9274 57.2787C41.2828 57.0244 41.5338 56.64 41.5964 56.1862L42.4635 49.8992C42.5887 48.9915 41.9127 48.1487 40.9535 48.0168C39.9945 47.8853 39.1155 48.5145 38.9901 49.4221Z" fill="#000030"/>
<path d="M34.7098 29.7613C33.7509 29.6298 32.8721 30.2588 32.7464 31.1666L29.9143 51.6971C29.789 52.6048 30.465 53.4476 31.4242 53.5796C31.9038 53.6453 32.3633 53.5212 32.7186 53.2669C33.0739 53.0126 33.3249 52.6282 33.3875 52.1744L36.2196 31.6439C36.3448 30.7358 35.6688 29.8931 34.7098 29.7613Z" fill="#000030"/>
<path d="M75.0336 52.8578C72.8619 53.7137 70.5086 54.8326 68.0604 56.1644C73.2331 46.8 72.5472 34.9551 65.2739 25.8866C55.2784 13.4237 36.5714 10.8535 23.5732 20.1573C10.575 29.461 8.13226 47.1695 18.128 59.6324C25.4013 68.701 37.2863 72.5295 48.2289 70.3594C46.2092 72.2257 44.4321 74.0631 42.9724 75.8065C38.9488 80.6119 37.7933 84.1518 39.5385 86.3278L44.3475 92.3238C46.0927 94.4997 50.0126 94.4068 55.9985 92.0477C61.1404 90.0209 67.2977 86.5247 73.336 82.2027C79.3743 77.8807 84.6031 73.227 88.0596 69.0989C92.0833 64.2935 93.2387 60.7536 91.4935 58.5776L86.6845 52.5816C84.9394 50.4058 81.0194 50.4988 75.0336 52.8578ZM20.9013 57.6473C12.0816 46.6508 14.237 31.0255 25.7059 22.8164C37.1748 14.6073 53.6811 16.8751 62.5008 27.8717C71.3204 38.8682 69.1651 54.4935 57.6962 62.7026C46.2273 70.9117 29.721 68.6439 20.9013 57.6473ZM45.724 77.8927C49.0059 73.9734 54.0149 69.5232 59.8289 65.3617C65.6428 61.2003 71.5335 57.8488 76.4152 55.9248C81.7778 53.8114 83.7183 54.3262 83.9113 54.5668C84.1043 54.8075 84.1037 56.7114 80.499 61.0165C77.2175 64.9358 72.2082 69.3859 66.3942 73.5475C60.5801 77.709 54.6897 81.0605 49.8078 82.9844C44.4453 85.0978 42.5049 84.5832 42.3118 84.3425C42.1188 84.1018 42.1193 82.1976 45.724 77.8927ZM85.3081 67.0126C82.0265 70.9318 77.0172 75.3821 71.2033 79.5436C65.3893 83.7051 59.4988 87.0564 54.6169 88.9805C49.2544 91.0939 47.3139 90.5792 47.1209 90.3385L45.0725 87.7846C46.7855 87.5599 48.8255 86.9833 51.1896 86.0517C56.3315 84.0251 62.4887 80.5287 68.527 76.2067C74.5653 71.8847 79.7941 67.231 83.2508 63.1032C84.8399 61.2054 85.9795 59.506 86.672 58.0089L88.7203 60.5628C88.9133 60.8035 88.9128 62.7076 85.3081 67.0126Z" fill="#000030"/>
<path d="M52.7564 78.782C56.5262 76.896 60.6557 74.3681 64.6986 71.4716C68.7414 68.5752 72.4324 65.5 75.3728 62.5787C75.9654 61.99 76.0139 61.0737 75.4872 60.4165C74.9606 59.7592 74.0147 59.5555 73.255 59.9355C69.4851 61.8214 65.3558 64.3492 61.3126 67.2459C57.2695 70.1426 53.5785 73.2178 50.6385 76.1389C50.0459 76.7277 49.9975 77.6439 50.5241 78.3011C51.0507 78.9584 51.9967 79.1622 52.7564 78.782Z" fill="#000030"/>
</svg>
