<svg width="37" height="46" viewBox="0 0 37 46" fill="none" xmlns="http://www.w3.org/2000/svg">
<path d="M8.64561 21.3866C8.64561 22.399 9.34223 23.2197 10.2015 23.2197C11.0609 23.2197 11.7575 22.399 11.7575 21.3866H8.64561ZM25.2422 21.3866C25.2422 22.399 25.9389 23.2197 26.7982 23.2197C27.6575 23.2197 28.3541 22.399 28.3541 21.3866H25.2422ZM8.04695 15.8872H28.9528V12.2209H8.04695V15.8872ZM31.5342 18.6528L33.1148 38.2063L36.2128 37.8587L34.6322 18.3052L31.5342 18.6528ZM30.5335 41.5511H6.46633V45.2174H30.5335V41.5511ZM3.88479 38.2063L5.46541 18.6528L2.36757 18.3052L0.786948 37.8587L3.88479 38.2063ZM6.46633 41.5511C4.93699 41.5511 3.7398 39.9998 3.88479 38.2063L0.786948 37.8587C0.467961 41.8048 3.1018 45.2174 6.46633 45.2174V41.5511ZM33.1148 38.2063C33.2599 39.9998 32.0626 41.5511 30.5335 41.5511V45.2174C33.898 45.2174 36.5317 41.8048 36.2128 37.8587L33.1148 38.2063ZM28.9528 15.8872C30.2897 15.8872 31.4075 17.0847 31.5342 18.6528L34.6322 18.3052C34.3534 14.8555 31.894 12.2209 28.9528 12.2209V15.8872ZM8.04695 12.2209C5.10566 12.2209 2.64643 14.8555 2.36757 18.3052L5.46541 18.6528C5.59217 17.0847 6.71001 15.8872 8.04695 15.8872V12.2209ZM11.7575 11.6099C11.7575 7.22273 14.7762 3.66628 18.4999 3.66628V0C13.0575 0 8.64561 5.19792 8.64561 11.6099H11.7575ZM18.4999 3.66628C22.2235 3.66628 25.2422 7.22273 25.2422 11.6099H28.3541C28.3541 5.19792 23.9421 0 18.4999 0V3.66628ZM8.64561 11.6099V21.3866H11.7575V11.6099H8.64561ZM25.2422 11.6099V21.3866H28.3541V11.6099H25.2422Z" fill="white"/>
</svg>
