<svg width="78" height="45" viewBox="0 0 78 45" fill="none" xmlns="http://www.w3.org/2000/svg">
<path d="M24.332 27.6846L72.3896 27.452C76.7327 27.431 76.8224 42.3338 72.4792 42.3548L24.4217 42.5874L24.332 27.6846Z" fill="#F784C9"/>
<path d="M38.7852 2.79956L71.1135 2.64317C75.4565 2.62216 75.5461 17.5208 71.2031 17.5418L38.8748 17.6982L38.7852 2.79956Z" fill="#F784C9"/>
<path d="M13.041 39.3366L12.9912 31.0608L27.8442 30.9889L27.894 39.2647L13.041 39.3366Z" fill="#F784C9"/>
<path d="M22.6737 42.5976L22.6637 40.9416L20.4792 40.9522C20.4847 41.8668 19.7067 42.612 18.7416 42.6166C17.7765 42.6213 16.9895 41.8837 16.984 40.9691L13.0521 40.9881C12.087 40.9928 11.3 40.2552 11.2945 39.3406L11.2447 31.0608C11.2392 30.1461 12.0171 29.401 12.9824 29.3963L16.9143 29.3773C16.9088 28.4627 17.6869 27.7175 18.6519 27.7128C19.617 27.7082 20.404 28.4457 20.4095 29.3604L22.594 29.3498L22.584 27.6938C22.5785 26.7792 23.3566 26.034 24.3217 26.0293L72.3795 25.7968C76.0736 25.7789 77.414 30.6788 77.4393 34.8803C77.4645 39.0817 76.1832 43.9943 72.489 44.0122L24.4311 44.2447C23.4662 44.2498 22.6792 43.5122 22.6737 42.5976ZM14.7499 32.7L14.7798 37.6678L16.9643 37.6573L16.9344 32.6894L14.7499 32.7ZM20.4294 32.6725L20.4593 37.6403L22.6438 37.6298L22.6139 32.6619L20.4294 32.6725ZM73.9441 34.8975C73.9216 31.1643 72.8258 29.2431 72.3994 29.1089L26.0891 29.333L26.1588 40.9247L72.4634 40.7018C72.8939 40.5623 73.9665 38.6307 73.9441 34.8975Z" fill="#1C1F28"/>
<path d="M38.2597 17.709L38.2249 11.9123L21.7103 11.9922L21.7302 15.3046C21.7357 16.2193 20.9576 16.9646 19.9925 16.9693C19.0274 16.974 18.2404 16.2363 18.2349 15.3215L18.215 12.0091L17.1725 12.0141L17.1875 14.4985C17.193 15.4133 16.4149 16.1586 15.4498 16.1633C14.4847 16.1679 13.6977 15.4302 13.6922 14.5155L13.6773 12.0311L12.6348 12.0361L12.6448 13.6924C12.6503 14.6071 11.8722 15.3524 10.9071 15.3571C9.94204 15.3618 9.15504 14.6241 9.14954 13.7093L9.13958 12.053L8.09695 12.0581L8.10193 12.8862C8.10743 13.801 7.32935 14.5462 6.36427 14.5509C5.39918 14.5556 4.61219 13.8179 4.60669 12.9031L4.60171 12.075L3.55938 12.08C3.56488 12.9948 2.78695 13.7401 1.82172 13.7447C0.856484 13.7494 0.0702416 13.0117 0.0647404 12.0969L0.0448206 8.78457C0.0393194 7.86979 0.817247 7.12452 1.78248 7.11985C2.74772 7.11518 3.53456 7.85288 3.54006 8.76765L4.58254 8.76261L4.57756 7.93448C4.57206 7.0197 5.35014 6.27443 6.31522 6.26976C7.28031 6.26509 8.0673 7.00279 8.0728 7.91756L8.07778 8.74569L9.12041 8.74064L9.11045 7.08439C9.10495 6.16961 9.88303 5.42434 10.8481 5.41967C11.8132 5.415 12.6002 6.15269 12.6057 7.06747L12.6157 8.72373L13.6581 8.71868L13.6432 6.23429C13.6377 5.31952 14.4158 4.57425 15.3809 4.56958C16.3459 4.5649 17.1329 5.3026 17.1384 6.21738L17.1534 8.70177L18.1959 8.69672L18.1759 5.38434C18.1704 4.46957 18.9485 3.7243 19.9136 3.71963C20.8787 3.71496 21.6657 4.45265 21.6712 5.36743L21.6911 8.67981L38.2057 8.59988L38.1708 2.80311C38.1653 1.88834 38.9434 1.14307 39.9085 1.1384L72.2387 0.981927C75.933 0.964048 77.2733 5.86471 77.2986 10.0668C77.3239 14.269 76.0425 19.1823 72.3483 19.2002L40.0175 19.3567C39.0522 19.3615 38.2652 18.6238 38.2597 17.709ZM73.8026 10.0839C73.7802 6.35017 72.6843 4.42865 72.2579 4.29445L41.6751 4.44246L41.7449 16.036L72.3219 15.8892C72.7524 15.7495 73.8251 13.8176 73.8026 10.0839Z" fill="#1C1F28"/>
</svg>
