<svg width="67" height="61" viewBox="0 0 67 61" fill="none" xmlns="http://www.w3.org/2000/svg">
<rect x="1" y="26" width="65" height="34" rx="4" fill="#D9D9D9" stroke="#23262E" stroke-width="2"/>
<line x1="17.5" y1="15" x2="17.5" y2="25" stroke="#23262E"/>
<line x1="14.5" y1="15" x2="14.5" y2="25" stroke="#23262E"/>
<line x1="50.5" y1="15" x2="50.5" y2="25" stroke="#23262E"/>
<line x1="53.5" y1="15" x2="53.5" y2="25" stroke="#23262E"/>
<rect x="1" y="1" width="65" height="21" rx="4" fill="#F784C9" stroke="#23262E" stroke-width="2"/>
<circle cx="8" cy="34" r="2.75" fill="#410202" stroke="#23262E" stroke-width="0.5"/>
<circle cx="8" cy="43" r="2.75" fill="#A78201" stroke="#23262E" stroke-width="0.5"/>
<circle cx="8" cy="52" r="2.75" fill="#004751" stroke="#23262E" stroke-width="0.5"/>
<circle cx="18" cy="34" r="2.75" fill="#6D0101" stroke="#23262E" stroke-width="0.5"/>
<circle cx="18" cy="43" r="2.75" fill="#D6A704" stroke="#23262E" stroke-width="0.5"/>
<circle cx="18" cy="52" r="2.75" fill="#038EA2" stroke="#23262E" stroke-width="0.5"/>
<circle cx="28" cy="34" r="2.75" fill="#CD0404" stroke="#23262E" stroke-width="0.5"/>
<circle cx="28" cy="43" r="2.75" fill="#FFC600" stroke="#23262E" stroke-width="0.5"/>
<circle cx="28" cy="52" r="2.75" fill="#00E0FF" stroke="#23262E" stroke-width="0.5"/>
<circle cx="38" cy="34" r="2.75" fill="#7C2104" stroke="#23262E" stroke-width="0.5"/>
<circle cx="38" cy="43" r="2.75" fill="#095803" stroke="#23262E" stroke-width="0.5"/>
<circle cx="38" cy="52" r="2.75" fill="#000A62" stroke="#23262E" stroke-width="0.5"/>
<circle cx="48" cy="34" r="2.75" fill="#B72E02" stroke="#23262E" stroke-width="0.5"/>
<circle cx="48" cy="43" r="2.75" fill="#098600" stroke="#23262E" stroke-width="0.5"/>
<circle cx="58" cy="34" r="2.75" fill="#FF3E00" stroke="#23262E" stroke-width="0.5"/>
<circle cx="58" cy="43" r="2.75" fill="#0FD600" stroke="#23262E" stroke-width="0.5"/>
<line x1="46" y1="52" x2="60" y2="52" stroke="#23262E" stroke-width="2" stroke-linecap="round"/>
<rect x="19.4971" y="5.07227" width="1" height="9.37886" rx="0.5" transform="rotate(35.8787 19.4971 5.07227)" fill="#EDEAEA"/>
<rect x="26.4609" y="4.64258" width="1.03698" height="14.1902" rx="0.518492" transform="rotate(35.8787 26.4609 4.64258)" fill="#EDEAEA"/>
</svg>
