<svg width="18" height="16" viewBox="0 0 18 16" fill="none" xmlns="http://www.w3.org/2000/svg">
<path d="M8.86988 1.02735C9.04588 0.631575 9.6076 0.631576 9.78361 1.02735L11.7505 5.45039C11.8253 5.61858 11.9865 5.73207 12.17 5.74583L17.2123 6.12391C17.665 6.15785 17.8418 6.72888 17.4875 7.01272L13.6965 10.05C13.5434 10.1727 13.4761 10.3736 13.5246 10.5638L14.6914 15.1385C14.8005 15.5662 14.3422 15.9152 13.9589 15.6962L9.57476 13.1917C9.42107 13.1039 9.23241 13.1039 9.07872 13.1917L4.69463 15.6962C4.31132 15.9152 3.85302 15.5662 3.96212 15.1385L5.12885 10.5638C5.17734 10.3736 5.11013 10.1727 4.95698 10.05L1.16595 7.01272C0.811667 6.72888 0.988498 6.15785 1.44119 6.12391L6.48349 5.74583C6.66703 5.73207 6.82817 5.61857 6.90296 5.45039L8.86988 1.02735Z" fill="#FFA029"/>
</svg>
